<svg width="64" height="64" viewBox="0 0 64 64" fill="none" xmlns="http://www.w3.org/2000/svg">
<rect width="64" height="64" rx="12" fill="#7000FF" fill-opacity="0.2"/>
<path d="M38.4375 42.875L30.875 35.25C30.4583 35.4167 30.0365 35.5417 29.6094 35.625C29.1823 35.7083 28.7292 35.75 28.25 35.75C26.1667 35.75 24.3958 35.0208 22.9375 33.5625C21.4792 32.1042 20.75 30.3333 20.75 28.25C20.75 27.5 20.8542 26.7865 21.0625 26.1094C21.2708 25.4323 21.5625 24.7917 21.9375 24.1875L26.5 28.75L28.75 26.5L24.1875 21.9375C24.7917 21.5625 25.4323 21.2708 26.1094 21.0625C26.7865 20.8542 27.5 20.75 28.25 20.75C30.3333 20.75 32.1042 21.4792 33.5625 22.9375C35.0208 24.3958 35.75 26.1667 35.75 28.25C35.75 28.7292 35.7083 29.1823 35.625 29.6094C35.5417 30.0365 35.4167 30.4583 35.25 30.875L42.875 38.4375C43.125 38.6875 43.25 38.9896 43.25 39.3438C43.25 39.6979 43.125 40 42.875 40.25L40.25 42.875C40 43.125 39.6979 43.25 39.3438 43.25C38.9896 43.25 38.6875 43.125 38.4375 42.875ZM39.3438 40.2188L40.1875 39.375L32.1875 31.375C32.5625 30.9583 32.8333 30.474 33 29.9219C33.1667 29.3698 33.25 28.8125 33.25 28.25C33.25 27 32.849 25.9115 32.0469 24.9844C31.2448 24.0573 30.25 23.5 29.0625 23.3125L31.375 25.625C31.625 25.875 31.75 26.1667 31.75 26.5C31.75 26.8333 31.625 27.125 31.375 27.375L27.375 31.375C27.125 31.625 26.8333 31.75 26.5 31.75C26.1667 31.75 25.875 31.625 25.625 31.375L23.3125 29.0625C23.5 30.25 24.0573 31.2448 24.9844 32.0469C25.9115 32.849 27 33.25 28.25 33.25C28.7917 33.25 29.3333 33.1667 29.875 33C30.4167 32.8333 30.9062 32.5729 31.3438 32.2188L39.3438 40.2188Z" fill="#D1BCFF"/>
</svg>
