<svg width="78" height="36" viewBox="0 0 78 36" fill="none" xmlns="http://www.w3.org/2000/svg">
<path d="M24.6 27L18.3 20.7C17.8 21.1 17.225 21.4167 16.575 21.65C15.925 21.8833 15.2333 22 14.5 22C12.6833 22 11.1458 21.3708 9.8875 20.1125C8.62917 18.8542 8 17.3167 8 15.5C8 13.6833 8.62917 12.1458 9.8875 10.8875C11.1458 9.62917 12.6833 9 14.5 9C16.3167 9 17.8542 9.62917 19.1125 10.8875C20.3708 12.1458 21 13.6833 21 15.5C21 16.2333 20.8833 16.925 20.65 17.575C20.4167 18.225 20.1 18.8 19.7 19.3L26 25.6L24.6 27ZM14.5 20C15.75 20 16.8125 19.5625 17.6875 18.6875C18.5625 17.8125 19 16.75 19 15.5C19 14.25 18.5625 13.1875 17.6875 12.3125C16.8125 11.4375 15.75 11 14.5 11C13.25 11 12.1875 11.4375 11.3125 12.3125C10.4375 13.1875 10 14.25 10 15.5C10 16.75 10.4375 17.8125 11.3125 18.6875C12.1875 19.5625 13.25 20 14.5 20Z" fill="#B9CACB"/>
<path d="M55.99 28C55.44 28 54.9692 27.8042 54.5775 27.4125C54.1858 27.0208 53.99 26.55 53.99 26C53.99 25.45 54.1858 24.9792 54.5775 24.5875C54.9692 24.1958 55.44 24 55.99 24C56.54 24 57.0108 24.1958 57.4025 24.5875C57.7942 24.9792 57.99 25.45 57.99 26C57.99 26.55 57.7942 27.0208 57.4025 27.4125C57.0108 27.8042 56.54 28 55.99 28ZM65.99 28C65.44 28 64.9692 27.8042 64.5775 27.4125C64.1858 27.0208 63.99 26.55 63.99 26C63.99 25.45 64.1858 24.9792 64.5775 24.5875C64.9692 24.1958 65.44 24 65.99 24C66.54 24 67.0108 24.1958 67.4025 24.5875C67.7942 24.9792 67.99 25.45 67.99 26C67.99 26.55 67.7942 27.0208 67.4025 27.4125C67.0108 27.8042 66.54 28 65.99 28ZM55.14 12L57.54 17H64.54L67.29 12H55.14ZM54.19 10H68.94C69.3233 10 69.615 10.1708 69.815 10.5125C70.015 10.8542 70.0233 11.2 69.84 11.55L66.29 17.95C66.1067 18.2833 65.8608 18.5417 65.5525 18.725C65.2442 18.9083 64.9067 19 64.54 19H57.09L55.99 21H67.99V23H55.99C55.24 23 54.6733 22.6708 54.29 22.0125C53.9067 21.3542 53.89 20.7 54.24 20.05L55.59 17.6L51.99 10H49.99V8H53.24L54.19 10ZM57.54 17H64.54H57.54Z" fill="#7DF4FF"/>
</svg>
